<svg width="59" height="59" viewBox="0 0 59 59" fill="none" xmlns="http://www.w3.org/2000/svg">
<path d="M41.8296 0.0708832L42.6346 0.0801669L43.0209 0.0879032L43.6983 0.115754L44.0248 0.132774L44.6051 0.185381L44.888 0.214779L45.4053 0.296785L45.6591 0.341655L46.1456 0.457701L46.3865 0.521139L46.8714 0.67896L47.1171 0.76406L47.6344 0.966753L48.4815 1.33191L48.8355 1.49128L49.5241 1.84251L49.8652 2.02199L50.5279 2.41654L50.8561 2.61769L51.4897 3.05093L51.8033 3.27219L52.4079 3.7441L52.7054 3.98393L53.2776 4.48989L53.5589 4.74673L54.0971 5.28518L54.3623 5.5575L54.8634 6.1269L55.1107 6.41469L55.5746 7.01039L55.8025 7.31211L56.2277 7.93256L56.4346 8.24511L56.8177 8.88878L57.0036 9.2137L57.3447 9.87593L57.508 10.2101L57.8038 10.8909L57.9444 11.2329L58.1917 11.9292L58.3097 12.2773L58.5086 12.9859L58.6007 13.3418L58.7478 14.0598L58.9094 15.1444L58.9385 15.4028L58.9741 15.9784L58.9887 16.2754L58.9967 16.9098L59 17.5535L58.9305 18.9089L58.9078 19.2447L58.8448 19.9007L58.8108 20.2241L58.7284 20.8368L58.6848 21.1354L58.5845 21.6801L58.4132 22.3918L58.3582 22.5821L58.2127 23.0014L58.1352 23.218L57.9493 23.6776L57.7553 24.1433L57.2865 25.1165L57.0424 25.5977L56.5284 26.4967L56.4007 26.7087L56.1485 27.0986L55.7848 27.6061L55.6635 27.7608L55.4 28.0858L55.2643 28.2529L54.9539 28.6149L54.7922 28.8037L54.4188 29.223L54.2232 29.4412L53.769 29.9363L53.5298 30.1947L52.9753 30.7857L52.8298 30.9405L52.5162 31.2716L52.3546 31.4402L52.0103 31.8008L51.8341 31.9864L51.4574 32.3794L51.2634 32.5806L50.8496 33.0107L50.6395 33.2304L50.1869 33.6977L49.4659 34.445L49.2396 34.6771L48.7288 35.2063L48.4653 35.4802L47.893 36.0759L47.6005 36.3791L46.9862 37.0212L46.6742 37.3446L46.0373 38.0115L45.3972 38.6815L44.1282 40.0106L43.8195 40.3355L43.2279 40.9575L42.4018 41.8302L41.8199 42.4444L40.719 43.6033L40.1775 44.1727L39.1543 45.245L38.6516 45.7695L37.7027 46.7551L37.2387 47.2394L36.361 48.143L35.9326 48.5855L35.1244 49.4102L34.7283 49.8125L33.988 50.5614L33.6243 50.925L32.9453 51.6012L32.614 51.9292L31.9965 52.5326L31.6942 52.8266L31.1316 53.3635L30.8584 53.6234L30.3509 54.0954L30.1035 54.3228L29.6461 54.7328L29.423 54.9309L29.014 55.2821L28.8152 55.4508L28.4515 55.7463L28.2753 55.8871L27.9536 56.1285L27.7968 56.243L27.5139 56.4364L27.1292 56.67L26.7671 56.8743L26.0655 57.2332L25.718 57.405L25.0358 57.7067L24.6964 57.849L24.0207 58.0966L23.6812 58.2127L22.9974 58.4076L22.6531 58.4989L21.9467 58.6474L21.5879 58.7155L20.8459 58.8207L20.4676 58.8687L19.6755 58.9321L18.4131 58.9894L18.0801 58.9971L17.3963 59.0002L17.0584 58.9987L16.4199 58.9863L16.1128 58.9785L15.5955 58.9522L15.4759 58.9461L15.2738 58.929L15.1785 58.9213L15.0314 58.9012L14.5755 58.8331L13.688 58.649L13.2484 58.55L12.3932 58.3039L11.9697 58.174L11.1453 57.8661L10.7363 57.7051L9.94263 57.3338L9.54821 57.1404L8.78199 56.7056L8.40373 56.4813L7.66499 55.983L7.29967 55.7246L6.58841 55.1614L5.549 54.2439L5.27582 53.984L4.765 53.4594L4.51445 53.1964L4.05052 52.6595L3.82259 52.3903L3.40068 51.8363L3.19377 51.5563L2.81066 50.9807L2.62315 50.6898L2.27561 50.0864L2.10587 49.7816L1.79066 49.1456L1.63709 48.8238L1.35259 48.1523L0.953314 47.0955L0.866023 46.8418L0.712456 46.3729L0.64133 46.1439L0.516861 45.7123L0.402089 45.2852L0.246906 44.4667L0.179013 44.052L0.107888 43.1562L0.0933391 42.921L0.0771741 42.4135L0.0690918 41.5779L0.0690918 41.1958L0.0949557 40.4608L0.112737 40.0972L0.17578 39.3963L0.211343 39.0497L0.313182 38.3782L0.368143 38.044L0.508778 37.3941L0.584753 37.0708L0.7658 36.4348L0.86279 36.1176L1.08748 35.491L1.20549 35.1769L1.47382 34.5518L1.92806 33.6095L2.07678 33.3233L2.36775 32.7987L2.51646 32.5403L2.84784 32.0267L3.02404 31.7636L3.44595 31.2004L3.56072 31.0519L3.81451 30.7393L3.94706 30.5784L4.24126 30.2318L4.39321 30.0539L4.73591 29.6671L4.91211 29.4675L5.30653 29.0327L5.51182 28.8083L5.96606 28.3178L6.20045 28.0656L6.72096 27.5117L6.99092 27.227L7.58255 26.605L7.88969 26.2832L8.56053 25.5838L8.90646 25.2218L9.66298 24.4373L10.9012 23.1546L11.1631 22.8838L11.7531 22.2727L12.057 21.957L12.7149 21.2731L13.0511 20.9234L13.7576 20.19L14.1132 19.8187L14.8438 19.0574L15.5761 18.2946L17.0196 16.786L17.372 16.4178L18.0429 15.7138L18.9804 14.7328L19.7014 13.9762L21.0997 12.528L21.7915 11.8162L23.1138 10.4732L23.4387 10.1452L24.0724 9.51233L24.386 9.19978L24.9922 8.59789L25.2929 8.30236L25.8716 7.73761L26.1577 7.4591L26.7057 6.93148L26.9756 6.67308L27.4913 6.18415L27.7435 5.94587L28.2236 5.50025L28.4596 5.28209L28.9009 4.88135L29.1175 4.68639L29.5184 4.33206L29.714 4.16032L30.0728 3.85551L30.2458 3.71006L30.5594 3.45631L30.7097 3.33717L30.9748 3.13757L31.3175 2.90084L31.7281 2.63935L32.5929 2.15506L33.031 1.91987L33.9346 1.49282L34.3889 1.28858L35.307 0.931165L36.6794 0.482457L36.8508 0.432944L37.1482 0.352486L37.2937 0.315352L37.562 0.253461L37.8271 0.196212L38.3978 0.129679L38.5529 0.115754L38.9102 0.0971868L39.0993 0.0894505L39.5471 0.0786195L39.7831 0.075525L40.3505 0.0708832L41.3673 0.0693359M17.4076 20.9993L17.3607 21.0271L17.3041 21.072L17.2637 21.106L17.1732 21.1834L17.1166 21.2344L16.997 21.3443L16.9259 21.4093L16.6139 21.7002L16.4215 21.8843L16.0109 22.2758L15.7749 22.5048L15.2835 22.9813L15.0136 23.2459L14.4575 23.789L14.1617 24.0799L13.5587 24.674L13.2451 24.9835L12.6131 25.6117L12.2914 25.932L10.995 27.2239L10.3678 27.8537L9.74704 28.4788L9.4496 28.7789L8.86766 29.3684L8.59771 29.6454L8.07073 30.1823L7.83311 30.4268L7.37887 30.8956L7.1849 31.0983L6.82118 31.4805L6.67893 31.6352L6.54315 31.7806L6.48495 31.8441L6.37988 31.9617L6.33785 32.0096L5.43747 33.1562L4.90402 33.953L4.66963 34.3677L4.22348 35.2109L4.03112 35.6519L3.66741 36.5493L3.51546 37.0212L3.37482 37.4699L3.29885 37.7345L3.26813 37.8599L3.16306 38.3534L3.13235 38.6428L3.10648 38.946L3.09678 39.1224L3.08224 39.4938L3.07739 39.7166L3.0693 40.187L3.06769 40.4686L3.06445 41.0674V41.4232V42.3794L3.06769 42.9117L3.07254 43.1345L3.08224 43.5538L3.09193 43.7318L3.11133 44.0675L3.12588 44.2145L3.19862 44.756L3.26005 45.016L3.32794 45.279L3.36997 45.4229L3.45888 45.72L3.51222 45.8917L3.87108 46.9238L4.13942 47.5906L4.28976 47.914L4.60012 48.553L4.76824 48.861L5.11578 49.4706L5.3033 49.763L5.68802 50.3417L5.89332 50.6186L6.31361 51.1648L6.53507 51.4263L6.9893 51.9385L7.22854 52.1814L7.71349 52.6579L7.96728 52.8839L8.48456 53.3248L8.75289 53.5322L9.29927 53.936L9.58216 54.1232L10.156 54.4868L10.4518 54.6555L11.0515 54.9789L11.3619 55.1258L11.9859 55.409L12.3076 55.5343L12.9542 55.7757L13.2872 55.8794L13.9564 56.0759L14.2991 56.1563L14.9893 56.3064L15.3417 56.3652L15.7491 56.424L15.977 56.4441L16.449 56.4828L16.7028 56.4936L17.7568 56.5215L18.2999 56.506L19.3862 56.4565L19.8841 56.407L20.3706 56.3513L20.5921 56.3172L21.0188 56.2445L21.2031 56.2027L23.0265 55.6658L24.2001 55.2048L24.7562 54.9262L25.8408 54.3398L26.3387 54.0072L26.8301 53.6668L27.0613 53.4873L27.5155 53.1237L27.7273 52.9349L28.0571 52.6301L28.3238 52.3763L28.4773 52.2294L28.7958 51.9199L28.972 51.7466L29.3325 51.3923L29.5248 51.2004L30.3218 50.4036L30.7388 49.9781L31.5826 49.1162L31.9916 48.6908L32.2486 48.4246L32.4749 48.1925L32.6107 48.0517L32.8968 47.7577L33.0585 47.5906L33.3963 47.2441L33.579 47.0568L34.3468 46.2677L34.7639 45.8407L35.6109 44.9742L36.0328 44.5425L37.229 43.3063L37.5911 42.9272L37.756 42.7523L38.0761 42.4119L38.2167 42.2603L38.4867 41.9679L38.6014 41.8441L38.8132 41.6089L38.894 41.5161L39.0379 41.3474L39.0832 41.2902L39.1527 41.1973L39.1559 41.1818L39.1252 41.1029L39.0621 41.0132L39.0088 40.9498L38.8876 40.8074L38.8035 40.7177L38.6192 40.5212L38.5028 40.4036L38.2555 40.1514L38.1052 40.0028L37.79 39.6903L37.6057 39.5108L37.2193 39.1364L36.9979 38.9259L36.5388 38.4865L36.2802 38.2405L35.7435 37.7345L35.446 37.4545L34.8318 36.8773L34.4939 36.5602L33.7956 35.9103L33.4157 35.556L32.635 34.8288L32.2114 34.4373L31.3418 33.6312L30.873 33.1979L29.9128 32.3114L29.3987 31.8363L28.3448 30.8662L27.7823 30.3479L26.6329 29.2911L26.0219 28.7294L24.664 27.4823L23.838 26.7226L23.4597 26.3776L22.7307 25.7061L22.3993 25.4028L21.7592 24.8164L21.4715 24.5533L20.9154 24.0458L20.6681 23.8184L20.1912 23.3836L19.9794 23.1917L19.5753 22.8235L19.3975 22.6626L19.058 22.3578L18.9126 22.2262L18.6329 21.9756L18.5149 21.8704L18.2902 21.6723L18.1948 21.5903L18.017 21.4371L17.9443 21.3752L17.8085 21.2607L17.7551 21.2174L17.5709 21.0751L17.5159 21.0426L17.4302 20.9993M40.926 2.60995L40.1339 2.64554L39.7411 2.68113L38.9587 2.76313L38.5788 2.82193L37.8304 2.95035L37.4747 3.03236L36.7764 3.20565L36.4547 3.30932L35.9617 3.48571L35.6045 3.62651L35.417 3.70697L34.6475 4.0551L34.2612 4.25006L33.4949 4.6508L33.1506 4.8535L32.8176 5.05464L32.6657 5.15212L32.3779 5.34243L32.2551 5.43372L32.0837 5.56833L31.9431 5.68747L31.8607 5.7602L31.6861 5.91338L31.5891 6.00157L31.3854 6.18724L31.2723 6.29091L30.797 6.73652L30.5238 6.99646L29.9548 7.54265L29.6428 7.84746L29.0011 8.47411L28.66 8.81141L27.9649 9.4984L27.6061 9.85737L26.1367 11.3304L25.4012 12.0792L24.6673 12.8266L24.3116 13.1933L23.6052 13.9189L23.269 14.2671L22.6111 14.9525L22.3056 15.2728L21.7139 15.8964L21.4488 16.1795L20.9445 16.7211L20.7311 16.9547L20.5258 17.1821L20.4337 17.2843L20.2575 17.4823L20.1815 17.569L20.0376 17.7361L19.9794 17.8072L19.8711 17.9403L19.8307 17.9929L19.758 18.0904L19.7386 18.1244L19.7063 18.1817V18.1956L19.7531 18.2807L19.8307 18.3797L19.8905 18.4478L20.0263 18.5979L20.1136 18.6907L20.3044 18.8888L20.4175 19.0064L20.6584 19.2493L20.7958 19.387L21.0851 19.6732L21.2452 19.8311L21.5765 20.1544L21.7592 20.3308L22.131 20.6898L22.3314 20.8817L22.742 21.2731L22.9586 21.4805L23.4032 21.8998L23.6359 22.1195L24.5978 23.0246L25.1167 23.5058L26.1755 24.4884L26.7331 25.0005L27.8615 26.0341L28.4418 26.5617L28.8556 26.9408L29.208 27.2626L29.4181 27.4545L29.8562 27.8568L30.1019 28.0827L30.6095 28.5499L30.8827 28.8021L31.4436 29.3189L31.7378 29.5897L32.3359 30.1405L32.6414 30.4221L33.8829 31.5671L34.4923 32.1319L36.3141 33.8153L36.8993 34.3584L37.1805 34.6168L37.7302 35.1258L37.9872 35.3626L38.4851 35.8237L38.7114 36.031L39.143 36.4286L39.3272 36.6004L39.678 36.9222L39.8154 37.0506L40.0676 37.2827L40.15 37.3585L40.4814 37.6587L40.6318 37.7902L40.9227 38.0409L41.0423 38.1384L41.2654 38.3148L41.3398 38.3674L41.4093 38.4138L41.4319 38.4262L41.4723 38.4447L41.4788 38.4416L41.5806 38.3534L41.7229 38.2188L41.8263 38.1152L42.0575 37.8877L42.2014 37.7423L42.5101 37.4328L42.6896 37.2518L43.0646 36.8727L43.2731 36.6607L43.7047 36.2213L43.9375 35.9846L44.4127 35.4972L44.6649 35.2388L45.1757 34.7143L45.4392 34.4419L47.0945 32.7399L48.2212 31.581L48.7546 31.0349L49.28 30.4964L49.5273 30.2427L50.009 29.7491L50.2289 29.5247L50.6508 29.093L50.8334 28.9043L51.181 28.5499L51.3216 28.4076L52.2818 27.4111L52.8347 26.817L53.0707 26.5462L53.5184 26.0217L53.7108 25.7757L54.0745 25.2945L54.2297 25.0608L54.5239 24.5967L54.6516 24.3615L54.8957 23.888L55.004 23.6405L55.2125 23.1329L55.3111 22.8575L55.5035 22.2897L55.5989 21.9756L55.8575 20.9637L55.9949 20.2488L56.0483 19.8759L56.1404 19.1224L56.1679 18.7371L56.2148 17.962L56.2212 17.5721L56.2196 16.7938L56.2018 16.4085L56.1549 15.6442L56.1145 15.2728L56.0208 14.5394L55.9561 14.1897L55.8139 13.5043L55.7266 13.1855L55.5568 12.6564L55.4097 12.2649L55.3241 12.056L54.9442 11.1865L54.7227 10.7409L54.2636 9.85582L54.0293 9.45508L53.7949 9.06516L53.6817 8.89032L53.457 8.55457L53.3503 8.41222L53.0141 7.98981L52.7571 7.69428L52.6164 7.5411L52.0248 6.92374L51.7064 6.62357L51.0598 6.03252L50.7445 5.77412L50.4309 5.52346L50.2822 5.41206L49.9896 5.20008L49.8539 5.11189L49.377 4.821L49.023 4.61986L48.8322 4.51929L48.0369 4.11545L47.6215 3.92513L46.7825 3.55843L46.3865 3.4068L45.9969 3.26135L45.8142 3.19946L45.4586 3.08342L45.297 3.04009L44.3222 2.82193L43.619 2.71517L43.2489 2.67958L42.494 2.62078L42.106 2.60841L41.322 2.59758L40.926 2.60995Z" fill="#17423C"/>
<path d="M20.9153 24.0456L21.4714 24.5531L21.7591 24.8161L22.3992 25.4026L22.7306 25.7058L23.4596 26.3773L23.8379 26.7224L24.6639 27.4821L26.0218 28.7292L26.6328 29.2908L27.7821 30.3476L28.3447 30.866L29.3986 31.8361L29.9127 32.3111L30.8729 33.1977L31.3417 33.6309L32.2113 34.4371L32.6349 34.8285L33.4156 35.5557L33.7955 35.9101L34.4938 36.5599L34.8317 36.8771L35.4459 37.4542L35.7434 37.7343L36.2801 38.2403L36.5387 38.4863L36.9978 38.9257L37.2192 39.1361L37.6056 39.5106L37.7899 39.69L38.1051 40.0026L38.2554 40.1511L38.5027 40.4033L38.6191 40.5209L38.8034 40.7174L38.8875 40.8072L39.0087 40.9495L39.062 41.013L39.1251 41.1027L39.1558 41.1816L39.1526 41.1971L39.083 41.2899L39.0378 41.3472L38.8939 41.5158L38.8131 41.6087L38.6013 41.8438L38.4866 41.9676L38.2166 42.2601L38.076 42.4117L37.7559 42.7521L37.591 42.9269L37.2289 43.306L36.0327 44.5423L35.6108 44.974L34.7638 45.8404L34.3467 46.2675L33.5789 47.0566L33.3962 47.2438L33.0584 47.5904L32.8967 47.7575L32.6106 48.0515L32.4748 48.1923L32.2485 48.4244L31.9915 48.6905L31.5825 49.116L30.7387 49.9778L30.3217 50.4033L29.5247 51.2002L29.3324 51.3921L28.9719 51.7464L28.7957 51.9197L28.4772 52.2291L28.3237 52.3761L28.0569 52.6299L27.7272 52.9347L27.5154 53.1234L27.0612 53.4871L26.83 53.6665L26.3386 54.0069L25.8407 54.3396L24.7561 54.926L24.2 55.2045L23.0264 55.6656L21.203 56.2025L21.0187 56.2443L20.592 56.317L20.3705 56.3511L19.884 56.4068L19.3861 56.4563L18.2998 56.5058L17.7567 56.5213L16.7027 56.4934L16.4489 56.4826L15.9769 56.4439L15.749 56.4238L15.3416 56.365L14.9892 56.3062L14.299 56.1561L13.9563 56.0756L13.287 55.8791L12.9541 55.7755L12.3075 55.5341L11.9858 55.4088L11.3618 55.1256L11.0514 54.9786L10.4517 54.6552L10.1559 54.4866L9.58204 54.123L9.29916 53.9358L8.75278 53.5319L8.48445 53.3246L7.96717 52.8836L7.71338 52.6577L7.22843 52.1812L6.98919 51.9382L6.53495 51.4261L6.31349 51.1646L5.89321 50.6184L5.68791 50.3415L5.30319 49.7628L5.11567 49.4703L4.76813 48.8607L4.60001 48.5528L4.28964 47.9138L4.13931 47.5904L3.87097 46.9235L3.51211 45.8915L3.45877 45.7198L3.36986 45.4227L3.32783 45.2788L3.25994 45.0158L3.19851 44.7558L3.12577 44.2143L3.11122 44.0673L3.09182 43.7315L3.08374 43.5644L3.08859 43.6077L3.12254 43.7919L3.20013 44.1493L3.25186 44.3179L3.36339 44.6506L3.4329 44.8131L3.58324 45.1395L3.67376 45.3082L3.86612 45.6486L3.97928 45.8327L4.84895 47.0489L5.52303 47.8225L5.89967 48.1877L6.68044 48.9009L7.10396 49.2305L7.97363 49.8711L8.43595 50.1604L9.37513 50.7174L9.86331 50.9604L10.8542 51.4215L11.3634 51.6133L12.3867 51.9676L12.9056 52.1007L13.9433 52.3359L14.4622 52.4055L14.7904 52.4427L14.9763 52.4566L15.361 52.4798L15.5695 52.486L16.4344 52.4953L16.8854 52.4798L17.7857 52.4365L18.1996 52.3962L18.6053 52.3529L18.7912 52.3282L19.1485 52.2724L19.302 52.2415L20.1733 52.0295L20.7455 51.8562L21.0268 51.751L21.5877 51.5313L21.8642 51.4044L22.4138 51.1383L22.6853 50.9882L23.2269 50.6772L23.4952 50.5039L24.0286 50.145L24.2938 49.9469L24.8207 49.5415L25.081 49.3203L25.6031 48.8654L25.8618 48.6193L26.2158 48.2774L26.5294 47.9679L26.7217 47.7776L27.1242 47.3769L27.3554 47.1463L27.8323 46.6667L28.0941 46.4037L28.6308 45.8637L28.9153 45.5774L29.4924 44.991L29.7931 44.6877L31.0135 43.4453L31.6262 42.8186L32.2728 42.1579L32.6704 41.7479L32.8547 41.5576L33.2119 41.1894L33.3768 41.0192L33.6969 40.6865L33.8424 40.5349L34.1236 40.2393L34.253 40.1032L34.5003 39.8417L34.6102 39.7225L34.8252 39.4935L34.9206 39.3899L35.1016 39.1887L35.1825 39.099L35.4734 38.7679L35.5785 38.6395L35.7644 38.4043L35.8226 38.3176L35.918 38.1629L35.9357 38.1103L35.9535 38.0205L35.9374 37.9942L35.8921 37.9385L35.8323 37.8751L35.7886 37.8302L35.6916 37.7328L35.6302 37.6724L35.4977 37.5424L35.4185 37.4666L35.2536 37.3073L35.1582 37.216L34.961 37.0272L34.8527 36.9235L34.3855 36.481L34.1139 36.2257L33.5449 35.6919L33.2281 35.3948L32.5734 34.7852L32.2194 34.4556L31.4952 33.7841L31.1137 33.4313L30.3362 32.7134L29.9337 32.3436L28.6922 31.2002L27.8371 30.4142L27.4055 30.0165L25.671 28.4213L24.8482 27.6631L24.0351 26.9158L23.652 26.563L22.902 25.8745L22.5609 25.5588L21.8997 24.9508L21.612 24.6862L21.3307 24.4278L21.2014 24.3086L20.9541 24.0796L20.8894 24.0208M4.22014 35.2231L4.03101 35.6625L3.67538 36.5553L3.52828 37.021L3.30682 37.8148L3.20013 38.313L3.16133 38.5853L3.12739 38.8623L3.11284 39.0139L3.09182 39.246L3.09667 39.1222L3.10637 38.9458L3.13224 38.6425L3.16295 38.3532L3.26802 37.8596L3.29873 37.7343L3.37471 37.4697L3.51534 37.021L3.66729 36.5491L4.03101 35.6517L4.22337 35.2107L4.63073 34.4433M4.66629 34.3736L4.66952 34.3674L4.70993 34.2978M4.9023 33.9559L4.90391 33.9528L5.12214 33.6278M6.33774 32.0094L5.43412 33.1606L5.43735 33.1559L6.33774 32.0094L6.37977 31.9614ZM6.52202 31.8036L6.54304 31.7804L6.57698 31.7433M17.4317 20.999L17.3832 21.0253L17.325 21.0702L17.2846 21.1042L17.1941 21.1816L17.1375 21.2327L17.0179 21.341L16.9468 21.406L16.6364 21.6937L16.4441 21.8763L16.0351 22.2647L15.8007 22.4906L15.3109 22.9625L15.0409 23.2255L14.4881 23.764L14.1923 24.0533L13.5926 24.6444L13.2806 24.9523L12.6485 25.5758L12.3285 25.8946L12.0957 26.1251L12.2913 25.9317L12.613 25.6114L13.245 24.9832L13.5586 24.6738L14.1616 24.0796L14.4574 23.7888L15.0135 23.2457L15.2834 22.9811L15.7748 22.5045L16.0108 22.2755L16.4214 21.8841L16.6138 21.6999L16.9258 21.409L16.9969 21.3441L17.1165 21.2342L17.1731 21.1831L17.2636 21.1058L17.304 21.0717L17.3606 21.0269L17.4075 20.999H17.4301M19.9793 23.1915L20.1911 23.3834L20.668 23.8182L20.689 23.8383L19.6884 22.9269M17.5158 21.0423L17.5708 21.0748L17.755 21.2172L17.8084 21.2605L17.9442 21.375L18.0169 21.4369L18.1947 21.5901L18.2901 21.6721L18.5148 21.8701L18.6328 21.9754L18.9124 22.226L19.0579 22.3575L19.3974 22.6623L19.5396 22.7908L19.1856 22.4736L19.0062 22.3157L18.6603 22.0094L18.5051 21.8732L18.2093 21.6164L18.0832 21.5096L17.8472 21.31L17.755 21.2342L17.5869 21.0996L17.5336 21.0594L17.4818 21.0253L17.5158 21.0423Z" fill="#288A67"/>
<path d="M17.5339 21.0594L17.5873 21.0996L17.7554 21.2342L17.8475 21.31L18.0835 21.5096L18.2096 21.6164L18.5054 21.8732L18.6606 22.0094L19.0065 22.3157L19.186 22.4736L19.5723 22.8217L20.8429 23.9775L20.9544 24.0796L21.2017 24.3086L21.3311 24.4278L21.6123 24.6862L21.9001 24.9507L22.5612 25.5588L22.9023 25.8745L23.6523 26.563L24.0354 26.9158L24.8485 27.6631L25.6713 28.4213L27.4058 30.0165L27.8374 30.4142L28.6926 31.2002L29.934 32.3436L30.3365 32.7134L31.1141 33.4313L31.4956 33.7841L32.2198 34.4556L32.5738 34.7852L33.2284 35.3948L33.5453 35.6919L34.1143 36.2257L34.3859 36.481L34.853 36.9235L34.9613 37.0272L35.1585 37.216L35.2539 37.3072L35.4188 37.4666L35.498 37.5424L35.6306 37.6724L35.692 37.7327L35.789 37.8302L35.8326 37.8751L35.8924 37.9385L35.9377 37.9942L35.9539 38.0205L35.9361 38.1103L35.9183 38.1629L35.8229 38.3176L35.7647 38.4043L35.5788 38.6394L35.4738 38.7679L35.1828 39.099L35.102 39.1887L34.9209 39.3899L34.8255 39.4935L34.6105 39.7225L34.5006 39.8417L34.2533 40.1032L34.124 40.2393L33.8427 40.5349L33.6972 40.6865L33.3772 41.0191L33.2123 41.1893L32.855 41.5576L32.6708 41.7479L32.2731 42.1579L31.6265 42.8186L31.0139 43.4453L29.7934 44.6877L29.4927 44.991L28.9156 45.5774L28.6311 45.8637L28.0945 46.4036L27.8326 46.6667L27.3557 47.1463L27.1246 47.3769L26.7221 47.7776L26.5297 47.9679L26.2161 48.2774L25.8621 48.6193L25.6034 48.8654L25.0813 49.3203L24.8211 49.5415L24.2941 49.9469L24.029 50.1449L23.4955 50.5039L23.2272 50.6772L22.6857 50.9882L22.4141 51.1383L21.8645 51.4044L21.5881 51.5313L21.0272 51.751L20.7459 51.8562L20.1736 52.0295L19.3024 52.2415L19.1488 52.2724L18.7915 52.3281L18.6057 52.3529L18.1999 52.3962L17.7861 52.4365L16.8857 52.4798L16.4347 52.4952L15.5699 52.486L15.3613 52.4798L14.9766 52.4566L14.7907 52.4426L14.4626 52.4055L13.9437 52.3359L12.9059 52.1007L12.387 51.9676L11.3638 51.6133L10.8546 51.4214L9.86366 50.9604L9.37547 50.7174L8.43629 50.1604L7.97397 49.8711L7.1043 49.2305L6.68078 48.9009L5.90001 48.1876L5.52337 47.8225L4.84929 47.0489L3.97962 45.8327L3.86647 45.6486L3.6741 45.3082L3.58358 45.1395L3.43325 44.8131L3.36374 44.6506L3.2522 44.3179L3.20047 44.1493L3.12288 43.7919L3.08893 43.6077L3.04044 43.2008L3.02104 42.9904L3.00003 42.5169L2.99194 42.2693L2.99356 41.7077L3.01619 40.7406L3.02427 40.4977L3.04205 40.0707L3.05175 39.8664L3.07438 39.5028L3.0857 39.328L3.11318 39.0139L3.12773 38.8623L3.16168 38.5853L3.20047 38.313L3.30716 37.8148L3.52862 37.021L3.67572 36.5553L4.03135 35.6625L4.22048 35.2231L4.6634 34.3798L4.89617 33.9636L5.43123 33.1652L6.33808 32.0094L6.42699 31.9088L6.6921 31.6179L6.8392 31.4601L7.21099 31.0702L7.4082 30.8629L7.86567 30.3894L8.10491 30.1434L8.63512 29.6034L8.90669 29.3264L9.49025 28.7354L9.78768 28.4352L10.4084 27.8101L11.0356 27.1819L12.3288 25.8946L12.6489 25.5758L13.2809 24.9523L13.5929 24.6444L14.1926 24.0533L14.4884 23.764L15.0413 23.2255L15.3112 22.9625L15.801 22.4906L16.0354 22.2647L16.4444 21.8763L16.6368 21.6937L16.9471 21.406L17.0183 21.341L17.1379 21.2327L17.1945 21.1816L17.285 21.1042L17.3254 21.0702L17.3836 21.0253L17.4321 20.999H17.4434M10.4278 47.3475L10.2451 47.397L10.1611 47.4635L9.96711 47.7034L9.9364 47.8813L9.97034 47.9865L10.0738 48.2078L10.1805 48.3424L10.2953 48.4816L10.3664 48.559L10.5167 48.7184L10.6072 48.805L10.8028 48.9891L10.895 49.065L11.0744 49.2058L11.1585 49.2615L11.3217 49.3589L11.3961 49.3914L11.5416 49.4471L11.6062 49.458L11.7307 49.4703L11.7857 49.4595L11.8891 49.4286L11.9344 49.3961L12.0152 49.3203L12.0475 49.2661L12.1057 49.147L12.1267 49.0696L12.1526 48.8452L12.1284 48.706L12.0896 48.6302L11.9958 48.477L11.9166 48.3842L11.7388 48.1876L11.6127 48.0654L11.1326 47.6399L10.861 47.4511L10.7446 47.4032L10.5248 47.3367M8.5155 39.7953L8.42336 39.8556L8.38456 39.9005L8.30859 40.001L8.27626 40.0676L8.21483 40.213L8.18897 40.3028L8.14047 40.4962L8.12108 40.6122L8.0839 40.8567L8.06773 41.0006L8.04025 41.3007L8.02894 41.4725L8.02247 42.5834L8.0742 43.3385L8.12431 43.6882L8.17765 44.0301L8.20837 44.1895L8.27464 44.4943L8.31344 44.6305L8.39103 44.8858L8.43306 44.991L8.52035 45.1844L8.56723 45.2525L8.7208 45.432L8.81455 45.4877L9.00853 45.5789L9.10552 45.5898L9.29465 45.5867L9.37224 45.5496L9.51288 45.449L9.54844 45.3608L9.56945 45.1983L9.56784 45.0343L9.55814 44.9322L9.50318 44.4819L9.44983 44.239L9.37224 43.7563L9.32375 43.3354L9.30435 43.094L9.23484 42.0666L9.22676 41.5777L9.21706 41.0191L9.20898 40.7143L9.20413 40.5921L9.19119 40.3631L9.18311 40.2749L9.16533 40.1124L9.15402 40.0521L9.12815 39.9453L9.11037 39.9067L9.07319 39.8417L9.04894 39.82L8.94064 39.7628L8.86143 39.7519M10.7236 35.8822L10.4957 35.9565L10.3583 36.0462L10.0673 36.2628L9.89275 36.4253L9.66806 36.6435L9.54682 36.7719L9.49833 36.8276L9.34476 37.038L9.3189 37.1247L9.2995 37.2918L9.33506 37.3707L9.44013 37.5301L9.53389 37.6213L9.69392 37.7699L9.7602 37.8039L9.89114 37.8441L9.96711 37.8163L10.0479 37.7792L10.0948 37.7467L10.1934 37.674L10.2532 37.6229L10.3809 37.5084L10.4569 37.4372L10.6202 37.2809L10.7172 37.185L11.076 36.8183L11.2247 36.6388L11.2619 36.5677L11.3104 36.4361L11.3023 36.3742L11.27 36.252L11.2296 36.1793L11.0065 35.9271L10.8303 35.8621L10.7236 35.8822Z" fill="#54D18F"/>
<path d="M10.6067 48.8053L10.5162 48.7187L10.3659 48.5593L10.2948 48.482L10.18 48.3427L10.0733 48.2081L9.96985 47.9868L9.9359 47.8816L9.96661 47.7037L10.1606 47.4639L10.2447 47.3973L10.4273 47.3478L10.5243 47.337L10.7441 47.4035L10.8605 47.4515L11.1321 47.6402L11.6122 48.0657L11.7383 48.188L11.9161 48.3845L11.9953 48.4773L12.0891 48.6305L12.1279 48.7063L12.1521 48.8456L12.1262 49.0699L12.1052 49.1473L12.047 49.2664L12.0147 49.3206L11.9339 49.3964L11.8886 49.4289L11.7852 49.4598L11.7302 49.4707L11.6057 49.4583L11.5411 49.4475L11.3956 49.3918L11.3212 49.3593L11.158 49.2618L11.0739 49.2061L10.8945 49.0653L10.8023 48.9895M8.56673 45.2528L8.51985 45.1847L8.43256 44.9913L8.39053 44.8861L8.31294 44.6308L8.27415 44.4946L8.20787 44.1898L8.17716 44.0305L8.12381 43.6885L8.0737 43.3388L8.02197 42.5838L8.02844 41.4728L8.03975 41.3011L8.06723 41.0009L8.0834 40.857L8.12058 40.6125L8.13998 40.4965L8.18847 40.3031L8.21434 40.2133L8.27576 40.0679L8.30809 40.0014L8.38407 39.9008L8.42286 39.8559L8.515 39.7956L8.86093 39.7523L8.94014 39.7631L9.04845 39.8203L9.07269 39.842L9.10987 39.907L9.12765 39.9457L9.15352 40.0524L9.16483 40.1128L9.18262 40.2752L9.1907 40.3634L9.20363 40.5924L9.20848 40.7147L9.21656 41.0195L9.22626 41.578L9.23434 42.067L9.30385 43.0944L9.32325 43.3357L9.37174 43.7566L9.44934 44.2393L9.50268 44.4823L9.55764 44.9325L9.56734 45.0346L9.56896 45.1987L9.54794 45.3611L9.51238 45.4493L9.37174 45.5499L9.29415 45.587L9.10502 45.5901L9.00803 45.5793L8.81405 45.488L8.7203 45.4323M40.1498 37.3586L40.0673 37.2828L39.8152 37.0507L39.6778 36.9223L39.327 36.6005L39.1427 36.4287L38.7111 36.0311L38.4848 35.8237L37.9869 35.3627L37.7299 35.1259L37.1803 34.6169L36.899 34.3585L36.3138 33.8154L34.4921 32.132L33.8826 31.5672L32.6412 30.4222L32.3357 30.1406L31.7375 29.5898L31.4433 29.319L30.8824 28.8022L30.6092 28.55L30.1017 28.0827L29.856 27.8568L29.4179 27.4546L29.2077 27.2627L28.8553 26.9409L28.4415 26.5618L27.8612 26.0342L26.7329 25.0006L26.1752 24.4884L25.1164 23.5059L24.5975 23.0247L23.6357 22.1196L23.4029 21.8999L22.9584 21.4805L22.7418 21.2732L22.3312 20.8818L22.1307 20.6899L21.7589 20.3309L21.5763 20.1545L21.2449 19.8312L21.0849 19.6733L20.7955 19.3871L20.6581 19.2494L20.4172 19.0065L20.3041 18.8889L20.1133 18.6908L20.0261 18.598L19.8903 18.4479L19.8305 18.3798L19.7529 18.2808L19.706 18.1957V18.1818L19.7383 18.1245L19.7577 18.0905L19.8305 17.993L19.8709 17.9404L19.9792 17.8073L20.0374 17.7362L20.1812 17.569L20.2572 17.4824L20.4334 17.2843L20.5256 17.1822L20.7308 16.9548L20.9442 16.7211L21.4486 16.1796L21.7137 15.8964L22.3053 15.2729L22.6108 14.9526L23.2687 14.2672L23.605 13.919L24.3114 13.1934L24.667 12.8267L25.4009 12.0793L26.1364 11.3305L27.6058 9.85745L27.9647 9.49848L28.6597 8.81149L29.0008 8.47419L29.6426 7.84754L29.9546 7.54273L30.5236 6.99655L30.7968 6.7366L31.272 6.29099L31.3852 6.18732L31.5888 6.00165L31.6858 5.91346L31.8604 5.76028L31.9428 5.68756L32.0835 5.56842L32.2548 5.4338L32.3777 5.34251L32.6654 5.1522L32.8174 5.05472L33.1504 4.85358L33.4947 4.65088L34.2609 4.25014L34.6472 4.05518L35.4167 3.70705L35.6042 3.62659L35.9614 3.48579L36.4545 3.3094L36.7762 3.20573L37.4745 3.03244L37.8301 2.95043L38.5786 2.82201L38.9584 2.76321L39.7408 2.68121L40.1336 2.64562L40.9257 2.61003L41.3217 2.59766L42.1057 2.60849L42.4937 2.62087L43.2486 2.67966L43.6188 2.71525L44.322 2.82201L45.2967 3.04018L45.4583 3.0835L45.814 3.19954L45.9966 3.26144L46.3862 3.40688L46.7823 3.55851L47.6212 3.92521L48.0367 4.11553L48.832 4.51937L49.0227 4.61994L49.3767 4.82108L49.8536 5.11197L49.9894 5.20017L50.282 5.41214L50.4307 5.52354L50.7443 5.7742L51.0595 6.0326L51.7061 6.62365L52.0245 6.92382L52.6162 7.54119L52.7568 7.69436L53.0138 7.98989L53.3501 8.4123L53.4568 8.55465L53.6814 8.89041L53.7946 9.06525L54.029 9.45516L54.2634 9.8559L54.7225 10.7409L54.9439 11.1866L55.3238 12.0561L55.4095 12.265L55.5566 12.6565L55.7263 13.1856L55.8136 13.5044L55.9559 14.1898L56.0205 14.5395L56.1143 15.2729L56.1547 15.6442L56.2016 16.4086L56.2193 16.7939L56.221 17.5721L56.2145 17.9621L56.1676 18.7372L56.1401 19.1225L56.048 19.876L55.9947 20.2489L55.8573 20.9638L55.5986 21.9757L55.5032 22.2898L55.3109 22.8576L55.2123 23.133L55.0037 23.6405L54.8954 23.8881L54.6513 24.3616L54.5236 24.5967L54.2294 25.0609L54.0743 25.2946L53.7105 25.7758L53.5182 26.0218L53.0704 26.5463L52.8344 26.8171L52.2816 27.4112L51.3214 28.4077L51.1807 28.55L50.8332 28.9043L50.6505 29.0931L50.2286 29.5248L50.0088 29.7492L49.5271 30.2427L49.2797 30.4965L48.7544 31.0349L48.2209 31.5811L47.0942 32.74L45.439 34.442L45.1755 34.7143L44.6646 35.2389L44.4125 35.4973L43.9372 35.9847L43.7045 36.2214L43.2729 36.6608L43.0643 36.8728L42.6893 37.2519L42.5099 37.4329L42.2011 37.7424L42.0572 37.8878L41.8261 38.1152L41.7226 38.2189L41.5804 38.3535L41.4785 38.4417L41.4721 38.4448L41.4317 38.4262L41.409 38.4139L41.3395 38.3675L41.2652 38.3148L41.0421 38.1385L40.9225 38.041L40.6315 37.7903L40.4812 37.6588M9.53339 37.6217L9.43964 37.5304L9.33456 37.371L9.299 37.2921L9.3184 37.125L9.34426 37.0383L9.49783 36.8279L9.54633 36.7722L9.66756 36.6438L9.89226 36.4256L10.0668 36.2632L10.3578 36.0465L10.4952 35.9568L10.7231 35.8825L10.8298 35.8624L11.006 35.9274L11.2291 36.1796L11.2695 36.2523L11.3018 36.3746L11.3099 36.4365L11.2614 36.568L11.2242 36.6392L11.0755 36.8186L10.7167 37.1853L10.6197 37.2813L10.4564 37.4375L10.3804 37.5087L10.2527 37.6232L10.1929 37.6743L10.0943 37.747L10.0474 37.7795L9.96661 37.8166L9.89064 37.8445L9.7597 37.8042L9.69343 37.7702L9.53339 37.6217Z" fill="#F4F7F7"/>
</svg>
